<svg width="36" height="29" viewBox="0 0 36 29" fill="none" xmlns="http://www.w3.org/2000/svg">
<path d="M7.992 13H6.312L2.508 7.252V13H0.828V4.612H2.508L6.312 10.372V4.612H7.992V13ZM15.8322 9.532C15.8322 9.772 15.8162 9.988 15.7842 10.18H10.9242C10.9642 10.66 11.1322 11.036 11.4282 11.308C11.7242 11.58 12.0882 11.716 12.5202 11.716C13.1442 11.716 13.5882 11.448 13.8522 10.912H15.6642C15.4722 11.552 15.1042 12.08 14.5602 12.496C14.0162 12.904 13.3482 13.108 12.5562 13.108C11.9162 13.108 11.3402 12.968 10.8282 12.688C10.3242 12.4 9.92822 11.996 9.64022 11.476C9.36022 10.956 9.22022 10.356 9.22022 9.676C9.22022 8.988 9.36022 8.384 9.64022 7.864C9.92022 7.344 10.3122 6.944 10.8162 6.664C11.3202 6.384 11.9002 6.244 12.5562 6.244C13.1882 6.244 13.7522 6.38 14.2482 6.652C14.7522 6.924 15.1402 7.312 15.4122 7.816C15.6922 8.312 15.8322 8.884 15.8322 9.532ZM14.0922 9.052C14.0842 8.62 13.9282 8.276 13.6242 8.02C13.3202 7.756 12.9482 7.624 12.5082 7.624C12.0922 7.624 11.7402 7.752 11.4522 8.008C11.1722 8.256 11.0002 8.604 10.9362 9.052H14.0922ZM20.7305 13L19.3625 10.936L18.1505 13H16.3505L18.5225 9.664L16.3265 6.352H18.2225L19.5785 8.404L20.8025 6.352H22.6025L20.4185 9.664L22.6265 13H20.7305ZM25.4949 7.732V10.948C25.4949 11.172 25.5469 11.336 25.6509 11.44C25.7629 11.536 25.9469 11.584 26.2029 11.584H26.9829V13H25.9269C24.5109 13 23.8029 12.312 23.8029 10.936V7.732H23.0109V6.352H23.8029V4.708H25.4949V6.352H26.9829V7.732H25.4949Z" fill="#2957A2"/>
<path d="M30.3776 15.2929C30.0286 14.9024 29.4629 14.9024 29.114 15.2929C28.7651 15.6834 28.7651 16.3166 29.114 16.7071L32.9495 21H0.893458C0.400015 21 0 21.4477 0 22C0 22.5523 0.400015 23 0.893458 23H32.9495L29.114 27.2929C28.7651 27.6834 28.7651 28.3166 29.114 28.7071C29.4629 29.0976 30.0286 29.0976 30.3776 28.7071L35.7383 22.7071C36.0872 22.3166 36.0872 21.6834 35.7383 21.2929L30.3776 15.2929Z" fill="#2957A2"/>
</svg>
