<svg width="36" height="29" viewBox="0 0 36 29" fill="none" xmlns="http://www.w3.org/2000/svg">
<path d="M15.936 7.216C15.936 7.664 15.828 8.084 15.612 8.476C15.404 8.868 15.072 9.184 14.616 9.424C14.168 9.664 13.6 9.784 12.912 9.784H11.508V13H9.828V4.624H12.912C13.56 4.624 14.112 4.736 14.568 4.96C15.024 5.184 15.364 5.492 15.588 5.884C15.82 6.276 15.936 6.72 15.936 7.216ZM12.84 8.428C13.304 8.428 13.648 8.324 13.872 8.116C14.096 7.9 14.208 7.6 14.208 7.216C14.208 6.4 13.752 5.992 12.84 5.992H11.508V8.428H12.84ZM18.8088 7.384C19.0248 7.032 19.3048 6.756 19.6488 6.556C20.0008 6.356 20.4008 6.256 20.8488 6.256V8.02H20.4048C19.8768 8.02 19.4768 8.144 19.2048 8.392C18.9408 8.64 18.8088 9.072 18.8088 9.688V13H17.1288V6.352H18.8088V7.384ZM28.1603 9.532C28.1603 9.772 28.1443 9.988 28.1123 10.18H23.2523C23.2923 10.66 23.4603 11.036 23.7563 11.308C24.0523 11.58 24.4163 11.716 24.8483 11.716C25.4723 11.716 25.9163 11.448 26.1803 10.912H27.9923C27.8003 11.552 27.4323 12.08 26.8883 12.496C26.3443 12.904 25.6763 13.108 24.8843 13.108C24.2443 13.108 23.6683 12.968 23.1563 12.688C22.6523 12.4 22.2563 11.996 21.9683 11.476C21.6883 10.956 21.5483 10.356 21.5483 9.676C21.5483 8.988 21.6883 8.384 21.9683 7.864C22.2483 7.344 22.6403 6.944 23.1443 6.664C23.6483 6.384 24.2283 6.244 24.8843 6.244C25.5163 6.244 26.0803 6.38 26.5763 6.652C27.0803 6.924 27.4683 7.312 27.7403 7.816C28.0203 8.312 28.1603 8.884 28.1603 9.532ZM26.4203 9.052C26.4123 8.62 26.2563 8.276 25.9523 8.02C25.6483 7.756 25.2763 7.624 24.8363 7.624C24.4203 7.624 24.0683 7.752 23.7803 8.008C23.5003 8.256 23.3283 8.604 23.2643 9.052H26.4203ZM32.1586 11.452L33.8386 6.352H35.6266L33.1666 13H31.1266L28.6786 6.352H30.4786L32.1586 11.452Z" fill="#2957A2" fill-opacity="0.7"/>
<path d="M5.62243 15.2929C5.97135 14.9024 6.53706 14.9024 6.88598 15.2929C7.23489 15.6834 7.23489 16.3166 6.88598 16.7071L3.05045 21H35.1065C35.6 21 36 21.4477 36 22C36 22.5523 35.6 23 35.1065 23H3.05045L6.88598 27.2929C7.23489 27.6834 7.23489 28.3166 6.88598 28.7071C6.53706 29.0976 5.97135 29.0976 5.62243 28.7071L0.261688 22.7071C-0.0872307 22.3166 -0.0872307 21.6834 0.261688 21.2929L5.62243 15.2929Z" fill="#2957A2" fill-opacity="0.7"/>
</svg>
